<?xml version="1.0" standalone="no"?>
<!DOCTYPE svg PUBLIC "-//W3C//DTD SVG 20010904//EN"
 "http://www.w3.org/TR/2001/REC-SVG-20010904/DTD/svg10.dtd">
<svg version="1.0" xmlns="http://www.w3.org/2000/svg"
 width="1021.000000pt" height="1004.000000pt" viewBox="0 0 1021.000000 1004.000000"
 preserveAspectRatio="xMidYMid meet">

<g transform="translate(0.000000,1004.000000) scale(0.100000,-0.100000)"
fill="#000000" stroke="none">
<path d="M4556 9903 c-21 -11 -54 -15 -120 -14 -67 1 -99 -3 -121 -15 -17 -9
-63 -18 -105 -21 -41 -3 -89 -11 -107 -19 -17 -8 -44 -14 -61 -14 -16 0 -43
-7 -58 -15 -16 -8 -45 -15 -64 -15 -19 -1 -46 -7 -60 -15 -14 -8 -36 -15 -50
-15 -14 0 -34 -7 -44 -15 -11 -8 -31 -15 -45 -15 -14 0 -35 -7 -45 -15 -11 -8
-30 -15 -43 -15 -13 0 -34 -6 -46 -14 -12 -8 -37 -17 -55 -21 -40 -8 -420
-200 -448 -226 -11 -10 -25 -19 -31 -19 -5 0 -36 -22 -67 -50 -31 -27 -62 -50
-69 -50 -17 0 -406 -390 -428 -430 -19 -34 -41 -67 -94 -140 -31 -44 -185
-350 -185 -369 0 -8 -16 -47 -35 -88 -20 -42 -35 -90 -35 -111 0 -20 -7 -46
-15 -56 -8 -11 -15 -31 -15 -45 0 -14 -7 -35 -15 -45 -11 -15 -15 -50 -15
-143 l0 -124 48 -48 c33 -33 60 -50 85 -55 20 -4 49 -13 64 -21 17 -9 58 -15
108 -15 50 -1 89 -6 105 -15 17 -10 57 -14 126 -15 72 0 106 -4 120 -15 14
-10 48 -14 125 -15 77 0 110 -4 125 -15 14 -10 48 -14 125 -15 77 0 110 -4
125 -15 15 -11 56 -14 192 -15 l173 0 60 57 c47 45 63 67 75 110 8 29 20 55
25 58 5 4 9 27 9 53 0 26 7 56 15 66 8 11 15 29 15 40 0 12 30 82 67 156 63
126 75 142 166 233 53 53 101 97 106 97 4 0 28 15 52 32 61 45 166 98 193 98
12 0 31 7 42 15 12 9 43 14 87 15 42 0 80 6 99 16 43 22 197 23 229 0 15 -10
44 -16 79 -16 32 -1 63 -7 74 -15 11 -8 30 -15 42 -15 28 0 158 -65 192 -97
14 -12 31 -23 39 -23 22 0 123 -100 138 -136 7 -18 22 -41 32 -51 23 -24 63
-104 63 -129 1 -10 7 -30 15 -44 8 -14 15 -43 15 -65 0 -22 7 -49 15 -59 11
-14 15 -46 15 -106 0 -60 4 -92 15 -106 19 -25 22 -533 3 -552 -8 -8 -51 -12
-128 -12 -90 0 -121 -4 -138 -16 -18 -12 -48 -16 -135 -15 -88 1 -119 -3 -142
-16 -23 -12 -66 -18 -175 -22 -87 -4 -154 -11 -167 -18 -13 -8 -59 -13 -116
-13 -65 0 -104 -5 -123 -15 -18 -9 -57 -15 -99 -15 -46 -1 -77 -6 -89 -15 -13
-10 -44 -15 -91 -15 -47 0 -78 -5 -91 -15 -11 -9 -43 -15 -79 -15 -36 0 -68
-6 -79 -15 -11 -8 -38 -15 -61 -15 -22 0 -50 -6 -61 -14 -11 -8 -37 -17 -57
-21 -21 -4 -40 -11 -42 -16 -3 -4 -27 -11 -53 -14 -26 -4 -75 -20 -108 -36
-34 -16 -70 -29 -80 -29 -11 -1 -30 -7 -44 -15 -14 -8 -34 -14 -45 -15 -22 0
-529 -253 -560 -278 -11 -10 -41 -30 -67 -45 -27 -15 -48 -31 -48 -35 0 -5
-26 -25 -58 -45 -65 -41 -372 -346 -372 -369 0 -8 -11 -27 -25 -42 -14 -15
-32 -43 -40 -62 -8 -19 -18 -34 -23 -34 -12 0 -219 -413 -228 -455 -4 -16 -11
-35 -16 -42 -6 -7 -12 -33 -14 -59 -3 -25 -11 -59 -19 -75 -8 -15 -15 -45 -15
-66 0 -21 -7 -47 -15 -57 -11 -14 -15 -46 -15 -106 0 -60 -4 -92 -15 -106 -21
-28 -21 -570 0 -598 10 -13 15 -44 15 -91 0 -47 5 -78 15 -91 8 -10 15 -36 15
-57 0 -21 7 -51 15 -66 8 -16 16 -50 19 -75 2 -26 8 -52 14 -59 5 -7 13 -27
17 -45 4 -18 20 -58 36 -90 16 -31 29 -64 29 -73 0 -23 76 -174 96 -189 8 -8
21 -27 28 -44 7 -17 25 -44 40 -59 14 -15 26 -34 26 -42 0 -19 333 -352 362
-360 12 -4 34 -18 47 -31 13 -13 47 -35 77 -48 29 -14 71 -38 91 -55 21 -16
66 -39 100 -50 33 -11 83 -32 109 -46 27 -15 64 -25 88 -25 23 0 50 -7 60 -15
11 -8 38 -15 61 -15 23 0 50 -7 61 -15 11 -8 42 -14 75 -15 33 0 63 -6 75 -15
28 -22 710 -22 738 0 14 11 47 15 110 15 64 1 97 5 110 15 13 10 44 15 91 15
47 0 78 5 91 15 11 8 42 14 75 15 42 0 70 7 110 29 30 15 67 31 83 35 38 9
282 131 316 157 14 11 35 25 47 32 49 27 160 106 182 131 14 14 30 26 37 26 7
0 42 27 77 60 36 33 70 60 77 60 7 0 77 64 156 141 134 133 143 140 149 116 4
-13 20 -37 36 -53 16 -15 29 -33 29 -40 0 -7 16 -31 35 -54 19 -23 35 -47 35
-53 0 -7 20 -34 45 -60 25 -27 45 -55 45 -63 0 -25 450 -470 504 -498 42 -23
61 -26 141 -26 l93 0 50 45 c27 25 55 45 62 45 6 0 55 43 109 95 54 52 104 95
110 95 7 0 57 43 111 95 54 52 104 95 110 95 7 0 63 50 125 110 62 61 119 110
127 110 7 0 83 69 167 153 146 146 201 219 201 266 0 21 -44 108 -70 136 -10
11 -25 34 -33 50 -9 17 -38 52 -66 80 -28 27 -51 55 -51 63 0 7 -20 34 -44 60
-24 26 -46 56 -50 67 -3 11 -19 35 -36 53 -16 18 -30 39 -30 46 0 7 -11 24
-23 38 -28 30 -97 163 -97 186 0 9 -7 30 -15 45 -8 15 -17 43 -21 63 -3 19
-10 37 -15 39 -4 3 -11 27 -14 53 -4 26 -13 61 -21 79 -12 26 -14 278 -14
1665 -1 1397 -3 1637 -15 1658 -10 17 -15 58 -15 125 0 72 -5 106 -15 119 -8
11 -15 38 -15 60 -1 23 -7 52 -15 66 -8 14 -14 41 -15 61 0 20 -13 60 -29 90
-15 30 -32 69 -35 86 -11 47 -64 152 -98 191 -15 18 -28 38 -28 45 0 7 -14 27
-30 46 -17 18 -30 40 -30 48 0 21 -256 279 -296 298 -19 9 -50 32 -70 51 -19
20 -50 42 -69 50 -19 8 -35 19 -35 24 0 13 -434 230 -462 230 -13 0 -32 7 -42
15 -11 8 -31 15 -45 15 -14 0 -35 7 -45 15 -11 8 -32 15 -46 15 -14 0 -35 7
-46 15 -10 8 -37 15 -60 15 -22 0 -49 7 -60 15 -10 8 -36 15 -57 15 -21 0 -50
6 -65 14 -15 7 -54 16 -87 19 -33 3 -73 12 -90 21 -22 12 -60 16 -145 16 -85
1 -120 4 -134 15 -30 23 -608 21 -650 -2z m1032 -4281 c2 -382 0 -446 -13
-465 -10 -14 -15 -45 -15 -92 0 -47 -5 -78 -15 -91 -8 -10 -15 -30 -15 -44 0
-14 -7 -36 -15 -50 -8 -14 -14 -34 -15 -45 0 -11 -6 -32 -14 -46 -7 -14 -16
-39 -20 -55 -10 -40 -75 -171 -92 -185 -8 -6 -35 -52 -60 -103 -26 -50 -66
-113 -90 -140 -24 -26 -44 -53 -44 -60 0 -14 -111 -126 -126 -126 -5 0 -25
-13 -44 -29 -45 -37 -233 -131 -262 -131 -13 0 -32 -7 -42 -15 -29 -22 -373
-22 -402 0 -10 8 -29 15 -40 15 -26 0 -184 78 -184 90 0 4 -20 18 -44 30 -28
13 -46 29 -50 45 -3 13 -22 38 -41 57 -38 35 -115 176 -115 212 0 11 -7 30
-15 40 -8 11 -15 32 -15 46 0 14 -7 35 -15 46 -21 28 -21 570 0 598 8 11 15
37 15 58 0 23 12 60 30 95 17 31 30 66 30 79 0 13 14 39 30 57 17 19 30 39 30
44 0 6 16 30 35 54 19 24 35 49 35 54 0 15 113 125 128 125 7 0 32 18 56 40
48 44 364 210 400 210 12 0 31 7 42 15 10 8 37 15 60 15 22 0 49 7 60 15 13
10 45 14 104 15 61 0 94 5 115 17 24 14 68 18 220 23 111 3 200 11 215 17 14
7 62 11 110 10 l85 -2 3 -443z"/>
<path d="M9235 3133 c-23 -13 -67 -18 -190 -23 -88 -3 -173 -11 -188 -18 -16
-7 -48 -12 -72 -12 -23 0 -56 -7 -71 -15 -16 -8 -44 -15 -62 -15 -18 0 -58
-13 -89 -30 -31 -16 -64 -30 -74 -30 -43 0 -276 -138 -328 -194 -14 -14 -29
-26 -34 -26 -20 0 -68 -44 -88 -78 -11 -21 -31 -52 -44 -71 -58 -80 -9 -227
96 -285 48 -27 65 -30 159 -34 89 -3 113 -1 158 17 40 16 75 21 147 21 85 0
96 2 123 25 30 25 85 34 96 16 4 -5 -14 -19 -39 -31 -25 -12 -45 -26 -45 -30
0 -5 -10 -12 -22 -16 -13 -4 -39 -19 -58 -34 -19 -15 -62 -42 -95 -59 -65 -35
-113 -66 -161 -105 -18 -14 -37 -26 -43 -26 -5 0 -25 -12 -43 -28 -18 -15 -63
-42 -100 -61 -38 -18 -68 -37 -68 -42 0 -11 -158 -89 -180 -89 -10 0 -57 -20
-104 -44 -47 -24 -100 -48 -118 -51 -17 -4 -52 -18 -77 -32 -25 -13 -62 -28
-81 -33 -40 -9 -90 -27 -138 -46 -18 -8 -43 -14 -55 -14 -12 0 -31 -7 -41 -15
-11 -8 -31 -15 -45 -15 -14 0 -35 -7 -45 -15 -11 -8 -38 -15 -61 -15 -23 0
-50 -7 -61 -15 -10 -8 -28 -15 -39 -15 -11 0 -33 -7 -49 -15 -16 -9 -48 -17
-70 -20 -23 -2 -58 -11 -78 -19 -21 -9 -52 -16 -70 -16 -18 0 -42 -7 -52 -15
-11 -8 -38 -15 -60 -15 -23 0 -50 -7 -60 -15 -12 -9 -43 -15 -75 -15 -31 -1
-67 -7 -81 -15 -14 -8 -50 -15 -80 -15 -32 0 -63 -7 -74 -15 -13 -10 -44 -15
-91 -15 -47 0 -78 -5 -91 -15 -12 -9 -44 -15 -94 -15 -50 0 -82 -6 -94 -15
-14 -11 -47 -15 -117 -15 -75 0 -107 -4 -140 -20 -38 -17 -66 -20 -200 -20
-119 0 -164 -4 -185 -15 -24 -12 -91 -15 -406 -15 -272 0 -384 3 -405 12 -15
7 -100 15 -188 18 -123 5 -167 10 -190 23 -22 12 -55 17 -125 17 -63 1 -103 5
-120 15 -15 8 -54 15 -95 15 -45 0 -77 6 -89 15 -13 10 -44 15 -91 15 -47 0
-78 5 -91 15 -10 8 -39 15 -64 15 -25 0 -54 7 -64 15 -11 8 -38 15 -61 15 -23
0 -50 7 -61 15 -10 8 -37 15 -60 15 -22 0 -49 7 -60 15 -10 8 -32 15 -48 15
-30 0 -135 31 -193 56 -17 8 -39 14 -50 14 -10 0 -27 7 -37 15 -11 8 -32 15
-46 15 -14 0 -35 7 -46 15 -10 8 -29 15 -42 15 -12 0 -48 14 -79 30 -31 17
-64 30 -73 30 -10 0 -130 56 -266 125 -137 69 -256 125 -265 125 -22 0 -657
318 -691 346 -15 12 -53 34 -83 49 -31 14 -65 35 -76 46 -10 10 -48 33 -83 49
-35 17 -70 37 -77 46 -7 8 -37 27 -68 41 -31 14 -68 36 -83 49 -15 12 -105 61
-199 108 l-172 86 -96 0 c-72 0 -102 -4 -119 -16 -39 -27 -112 -111 -133 -150
-23 -46 -25 -121 -4 -160 8 -16 15 -39 15 -51 0 -26 71 -100 114 -118 17 -8
74 -57 126 -111 52 -53 109 -103 125 -110 17 -7 61 -44 100 -83 38 -39 75 -71
83 -71 7 0 44 -29 82 -65 38 -36 75 -65 82 -65 8 0 36 -23 63 -51 28 -28 64
-58 80 -66 17 -9 52 -36 79 -59 26 -24 54 -44 60 -44 7 0 25 -13 41 -30 16
-16 55 -47 87 -67 32 -20 58 -40 58 -45 0 -4 21 -20 48 -35 26 -15 58 -38 72
-50 14 -13 30 -23 37 -23 7 0 28 -14 46 -30 19 -17 39 -30 44 -30 6 0 30 -16
54 -35 24 -19 49 -35 54 -35 6 -1 26 -14 45 -30 19 -17 39 -30 46 -30 6 0 18
-8 28 -18 9 -11 42 -32 74 -47 31 -16 70 -39 86 -52 15 -13 70 -44 122 -69 51
-25 98 -52 106 -61 16 -19 425 -223 448 -223 9 0 55 -20 102 -45 48 -25 95
-45 105 -45 10 0 44 -13 75 -29 32 -16 72 -32 90 -36 18 -4 38 -11 43 -15 6
-4 26 -11 45 -15 19 -4 44 -14 55 -21 11 -8 31 -14 45 -14 15 0 35 -7 46 -15
10 -8 31 -15 45 -15 14 0 34 -7 45 -15 10 -8 37 -15 59 -15 22 0 51 -7 65 -15
14 -8 41 -14 60 -15 19 0 48 -7 64 -15 15 -8 42 -15 60 -15 17 0 44 -7 60 -15
15 -8 48 -15 72 -15 24 0 66 -9 94 -20 33 -13 72 -20 109 -19 40 1 66 -4 82
-15 18 -13 49 -16 144 -16 90 -1 125 -4 139 -15 29 -22 868 -22 906 0 18 10
59 14 141 15 85 0 120 4 135 15 13 10 45 14 104 15 59 0 94 5 115 16 17 9 63
19 105 21 41 3 89 11 107 19 17 8 51 14 76 14 25 0 58 7 73 15 16 8 45 15 64
15 19 1 46 7 60 15 14 8 43 15 65 15 22 0 49 7 59 15 11 8 38 15 60 15 23 0
50 7 60 15 11 8 38 15 61 15 23 0 50 7 61 15 10 8 28 15 39 15 11 0 33 7 48
15 15 8 45 17 65 20 51 8 142 35 174 51 14 8 37 14 50 14 12 0 32 7 42 15 11
8 30 15 42 15 11 0 46 13 77 30 31 16 67 30 80 30 13 0 32 7 43 15 10 8 29 15
41 15 11 0 65 22 120 50 54 27 106 50 116 50 10 0 70 27 134 60 65 33 125 60
134 60 21 0 253 115 268 133 6 8 72 45 147 82 75 37 138 74 141 81 3 8 11 14
18 14 8 0 33 15 57 33 24 18 69 45 100 61 32 16 65 37 74 48 10 10 22 18 27
18 6 0 28 14 51 30 67 50 109 78 147 99 19 11 41 26 48 35 7 8 33 25 57 36 24
12 44 26 44 31 0 5 15 15 34 23 19 8 43 23 53 33 11 10 36 27 57 38 23 12 42
31 48 47 8 23 16 28 44 28 37 0 46 -15 15 -23 -13 -3 -22 -17 -27 -43 -4 -22
-13 -48 -20 -59 -8 -11 -14 -29 -14 -41 0 -12 -13 -46 -30 -77 -16 -31 -30
-65 -30 -74 0 -10 -14 -45 -30 -77 -23 -45 -30 -72 -30 -116 0 -187 207 -318
368 -234 53 28 312 280 312 305 1 8 14 30 30 49 17 19 30 39 30 46 0 6 11 23
24 37 27 30 166 301 166 326 0 9 14 43 30 75 17 32 30 66 30 75 0 9 6 28 14
43 8 15 17 41 21 58 4 17 13 43 21 58 8 15 14 43 14 62 1 19 7 46 15 60 8 14
15 36 15 50 0 14 7 34 15 44 9 12 15 42 15 76 0 34 6 64 15 76 21 27 21 261 0
288 -8 11 -15 38 -15 60 0 23 -7 50 -15 60 -8 11 -15 32 -15 47 0 15 -11 41
-25 57 -25 30 -174 112 -204 112 -9 0 -29 7 -45 15 -15 8 -42 15 -58 15 -17 0
-44 6 -61 14 -18 8 -72 16 -122 19 -57 3 -101 10 -120 20 -42 23 -189 23 -230
0z"/>
</g>
</svg>
