<?xml version="1.0" standalone="no"?>
<!DOCTYPE svg PUBLIC "-//W3C//DTD SVG 20010904//EN"
 "http://www.w3.org/TR/2001/REC-SVG-20010904/DTD/svg10.dtd">
<svg version="1.0" xmlns="http://www.w3.org/2000/svg"
 width="140.000000pt" height="123.000000pt" viewBox="0 0 140.000000 123.000000"
 preserveAspectRatio="xMidYMid meet">

<g transform="translate(0.000000,123.000000) scale(0.100000,-0.100000)"
fill="#000000" stroke="none">
<path d="M267 1188 c-9 -24 -70 -203 -135 -398 -66 -195 -123 -363 -127 -372
-7 -16 1 -18 88 -18 l95 0 24 73 25 72 146 3 c122 2 147 0 147 -12 0 -7 18
-69 40 -136 80 -239 123 -306 238 -362 62 -31 73 -33 167 -32 111 1 151 13
209 64 l34 30 32 -40 c26 -33 38 -40 66 -40 l34 0 0 205 0 205 -180 0 -180 0
0 -70 0 -70 70 0 c65 0 70 -2 70 -21 0 -12 -17 -39 -39 -60 -36 -36 -43 -39
-94 -39 -108 0 -148 70 -148 258 0 118 5 148 32 202 52 105 200 79 239 -42 13
-44 12 -43 142 -27 103 13 104 17 61 105 -64 131 -194 200 -360 192 -97 -5
-161 -27 -226 -79 -21 -17 -40 -29 -41 -28 -2 2 -38 110 -82 239 l-79 235
-126 3 -126 3 -16 -43z m171 -358 l29 -95 -80 -3 c-44 -2 -82 -1 -84 2 -3 3
14 62 37 132 l43 128 13 -35 c7 -19 26 -77 42 -129z"/>
<path d="M700 1115 l0 -35 255 0 255 0 0 35 0 35 -255 0 -255 0 0 -35z"/>
<path d="M700 995 l0 -35 255 0 255 0 0 35 0 35 -255 0 -255 0 0 -35z"/>
<path d="M150 305 l0 -35 211 0 210 0 -3 33 -3 32 -207 3 -208 2 0 -35z"/>
<path d="M50 175 l0 -35 258 2 257 3 3 33 3 32 -260 0 -261 0 0 -35z"/>
<path d="M50 55 l0 -35 261 0 260 0 -3 33 -3 32 -257 3 -258 2 0 -35z"/>
</g>
</svg>
