<?xml version="1.0" standalone="no"?>
<!DOCTYPE svg PUBLIC "-//W3C//DTD SVG 20010904//EN"
 "http://www.w3.org/TR/2001/REC-SVG-20010904/DTD/svg10.dtd">
<svg version="1.0" xmlns="http://www.w3.org/2000/svg"
 width="332.000000pt" height="123.000000pt" viewBox="0 0 332.000000 123.000000"
 preserveAspectRatio="xMidYMid meet">

<g transform="translate(0.000000,123.000000) scale(0.100000,-0.100000)"
fill="#000000" stroke="none">
<path d="M7 1223 c-4 -3 -7 -195 -7 -425 l0 -418 273 0 c213 0 286 3 332 15
108 28 165 95 165 193 0 92 -54 179 -128 203 l-34 11 50 29 c62 35 92 90 92
167 0 125 -70 199 -211 222 -70 11 -522 14 -532 3z m428 -203 c23 -25 24 -76
2 -97 -11 -11 -39 -18 -82 -21 l-65 -4 0 71 0 71 63 0 c51 0 68 -4 82 -20z
m10 -345 c30 -29 32 -55 6 -86 -16 -19 -30 -24 -90 -27 l-71 -4 0 71 0 71 65
0 c57 0 69 -3 90 -25z"/>
<path d="M2871 1208 c0 -13 21 -156 47 -318 l48 -295 55 -3 56 -3 52 313 c28
172 51 316 51 321 0 4 -70 7 -155 7 -154 0 -155 0 -154 -22z"/>
<path d="M3252 1208 c-7 -7 -12 -19 -11 -27 0 -11 3 -10 9 4 6 15 9 16 9 4 1
-9 8 -16 16 -16 20 0 19 13 -1 21 -8 3 -12 10 -9 16 8 14 2 13 -13 -2z"/>
<path d="M1046 801 c-136 -225 -246 -414 -246 -420 0 -8 45 -11 153 -9 l152 3
25 50 25 50 153 3 152 3 23 -48 c12 -27 27 -51 32 -55 13 -10 305 -10 305 0 0
4 -111 192 -247 419 -169 281 -253 413 -265 413 -12 0 -92 -125 -262 -409z
m299 -71 c19 -38 35 -72 35 -75 0 -3 -31 -5 -70 -5 -38 0 -70 3 -70 7 0 9 62
143 66 143 2 0 20 -31 39 -70z"/>
<path d="M1926 1198 c-3 -7 -9 -141 -15 -298 -7 -157 -14 -338 -18 -402 l-6
-118 125 0 126 0 6 31 c3 17 6 85 6 150 0 66 3 119 6 119 4 0 46 -29 94 -65
48 -36 91 -65 96 -65 5 0 45 29 89 64 72 58 80 62 83 43 1 -12 6 -78 10 -147
l7 -125 138 -3 137 -3 -1 68 c-4 274 -26 757 -34 760 -5 1 -100 -67 -210 -153
-110 -85 -205 -158 -211 -160 -7 -3 -101 67 -210 155 -109 89 -202 161 -206
161 -5 0 -10 -6 -12 -12z"/>
<path d="M2994 520 c-47 -19 -70 -93 -41 -131 54 -70 157 -38 157 49 0 61 -62
105 -116 82z"/>
<path d="M0 136 l0 -126 93 0 c111 0 137 13 137 65 0 24 -6 38 -20 45 -19 10
-19 11 0 30 25 25 25 51 1 81 -16 20 -29 23 -115 27 l-96 4 0 -126z m135 44
c0 -8 -10 -16 -22 -18 -18 -3 -23 2 -23 18 0 16 5 21 23 18 12 -2 22 -10 22
-18z m3 -97 c-2 -10 -13 -19 -26 -21 -17 -3 -22 2 -22 17 0 16 6 21 26 21 19
0 25 -5 22 -17z"/>
<path d="M315 241 c-46 -28 -66 -56 -71 -98 -10 -75 56 -143 139 -143 107 0
171 109 117 198 -36 58 -126 80 -185 43z m103 -73 c15 -15 15 -61 0 -76 -28
-28 -88 -2 -88 38 0 40 60 66 88 38z"/>
<path d="M604 241 c-46 -28 -64 -59 -64 -112 0 -32 7 -55 21 -73 81 -103 252
-53 252 74 0 100 -121 164 -209 111z m112 -86 c15 -23 15 -27 0 -50 -22 -33
-60 -33 -82 0 -15 23 -15 27 0 50 22 33 60 33 82 0z"/>
<path d="M830 136 l0 -126 44 0 45 0 3 48 3 47 30 -47 c30 -47 31 -48 83 -48
l53 0 -41 59 c-22 33 -40 66 -40 73 0 7 14 33 30 58 16 25 30 49 30 53 0 5
-19 7 -42 5 -39 -3 -46 -8 -75 -51 l-32 -48 -3 48 -3 48 -42 3 -43 3 0 -125z"/>
<path d="M1127 249 c-11 -6 -25 -27 -33 -45 -21 -51 -3 -84 58 -105 26 -8 51
-18 54 -22 13 -13 -28 -19 -50 -8 -16 9 -29 9 -49 2 -23 -9 -26 -14 -18 -30
11 -21 60 -41 98 -41 32 0 80 26 93 49 28 53 -11 121 -69 121 -34 0 -49 16
-32 33 9 9 17 8 31 -1 21 -13 70 -6 70 9 0 5 -9 18 -20 29 -22 22 -101 28
-133 9z"/>
<path d="M1426 136 l-75 -126 48 0 c34 0 51 5 55 15 8 21 92 21 104 -1 6 -11
21 -14 54 -12 l46 3 -68 114 c-38 62 -73 118 -78 123 -6 6 -37 -35 -86 -116z
m89 -44 c-22 -5 -27 1 -19 23 7 17 8 17 21 -1 12 -17 12 -19 -2 -22z"/>
<path d="M1730 188 c0 -40 -3 -97 -6 -125 l-7 -53 42 0 41 0 0 46 0 45 31 -21
c28 -20 31 -21 48 -6 26 23 30 20 37 -24 6 -39 8 -40 45 -40 l39 0 0 94 c0 51
-3 107 -6 124 l-6 31 -58 -44 c-32 -25 -64 -45 -71 -45 -6 0 -36 20 -65 45
-28 25 -55 45 -58 45 -3 0 -6 -33 -6 -72z"/>
<path d="M2030 136 l0 -126 45 0 46 0 -3 122 -3 123 -42 3 -43 3 0 -125z"/>
<path d="M2150 135 l0 -125 81 0 80 0 -3 28 c-3 23 -8 27 -40 30 l-38 3 0 95
0 94 -40 0 -40 0 0 -125z"/>
<path d="M2330 135 l0 -125 81 0 80 0 -3 28 c-3 23 -8 27 -40 30 l-38 3 0 95
0 94 -40 0 -40 0 0 -125z"/>
<path d="M2510 136 l0 -126 45 0 46 0 -3 122 -3 123 -42 3 -43 3 0 -125z"/>
<path d="M2693 245 c-40 -17 -73 -69 -73 -115 0 -100 116 -162 209 -112 38 20
71 73 71 112 0 94 -112 157 -207 115z m101 -81 c32 -31 11 -84 -32 -84 -35 0
-52 16 -52 50 0 14 5 31 12 38 17 17 54 15 72 -4z"/>
<path d="M2920 135 l0 -125 44 0 45 0 3 45 3 45 35 -23 c19 -13 56 -36 83 -51
l47 -28 0 132 0 131 -42 -3 -43 -3 -3 -47 -3 -47 -79 49 c-44 28 -82 50 -85
50 -3 0 -5 -56 -5 -125z"/>
<path d="M1311 146 c-9 -11 -10 -20 -1 -35 21 -40 79 -15 65 29 -7 24 -46 27
-64 6z"/>
<path d="M1647 154 c-15 -15 -7 -53 13 -59 27 -8 52 12 48 39 -3 21 -46 35
-61 20z"/>
</g>
</svg>
