<?xml version="1.0" standalone="no"?>
<!DOCTYPE svg PUBLIC "-//W3C//DTD SVG 20010904//EN"
 "http://www.w3.org/TR/2001/REC-SVG-20010904/DTD/svg10.dtd">
<svg version="1.0" xmlns="http://www.w3.org/2000/svg"
 width="1440.000000pt" height="828.000000pt" viewBox="0 0 1440.000000 828.000000"
 preserveAspectRatio="xMidYMid meet">

<g transform="translate(0.000000,828.000000) scale(0.100000,-0.100000)"
fill="#000000" stroke="none">
<path d="M12618 8240 c-86 -15 -162 -42 -243 -83 -211 -109 -341 -336 -376
-658 -26 -240 14 -434 140 -682 106 -208 234 -389 486 -693 352 -423 450 -603
470 -866 9 -109 -9 -318 -35 -401 -36 -115 -112 -168 -219 -152 -112 17 -164
84 -192 245 -17 99 -17 396 0 543 7 65 12 119 10 121 -2 2 -142 1 -311 -2
l-307 -5 -17 -71 c-12 -49 -18 -131 -22 -267 -7 -297 19 -446 109 -629 95
-193 256 -320 475 -375 85 -22 118 -25 278 -25 213 0 270 11 401 74 287 139
450 458 472 921 10 217 -23 369 -126 572 -90 180 -229 375 -582 820 -324 407
-389 543 -389 813 0 210 29 321 92 360 40 24 135 27 178 5 39 -20 76 -86 91
-165 14 -72 19 -496 6 -542 l-7 -28 290 0 289 0 15 53 c36 126 45 278 26 437
-44 356 -221 577 -530 661 -59 16 -113 22 -250 24 -96 2 -196 0 -222 -5z"/>
<path d="M3530 8206 c0 -14 -27 -201 -209 -1461 -258 -1780 -351 -2424 -351
-2429 0 -3 135 -6 300 -6 165 0 300 2 300 5 0 9 59 527 65 573 l6 42 218 0
217 0 34 -307 35 -308 363 -3 362 -2 -5 22 c-3 13 -34 196 -70 408 -36 212
-81 475 -100 585 -55 321 -308 1806 -401 2350 -46 275 -87 510 -89 523 l-5 22
-335 0 c-277 0 -335 -2 -335 -14z m335 -1276 c14 -157 142 -1310 164 -1485 5
-38 5 -73 2 -78 -4 -4 -84 -6 -177 -5 -162 3 -169 4 -167 23 13 103 116 1228
128 1390 19 265 26 337 30 333 2 -2 11 -82 20 -178z"/>
<path d="M910 6251 l0 -1941 468 0 c601 0 684 10 882 107 172 85 300 240 369
449 54 161 73 301 73 534 0 226 -18 363 -67 515 -77 233 -223 399 -393 444
-48 13 -54 28 -14 37 56 13 145 69 193 122 132 144 187 391 169 757 -23 455
-144 705 -400 828 -168 80 -165 80 -757 84 l-523 4 0 -1940z m881 1457 c55
-32 93 -97 115 -195 21 -93 31 -516 15 -639 -19 -142 -66 -223 -140 -244 -20
-5 -82 -10 -138 -10 l-103 0 0 561 0 561 103 -4 c89 -3 108 -7 148 -30z m40
-1606 c57 -37 101 -117 126 -232 26 -120 26 -742 0 -865 -24 -115 -62 -184
-117 -214 -40 -23 -56 -25 -170 -25 l-125 -1 -3 683 -2 682 123 0 c118 0 125
-1 168 -28z"/>
<path d="M5280 6250 l0 -1940 345 0 345 0 0 835 0 835 37 0 c54 0 137 -46 191
-105 56 -61 96 -139 124 -243 20 -71 22 -113 28 -572 7 -478 13 -568 46 -722
l6 -28 352 0 353 0 -13 68 c-27 142 -36 281 -44 677 -10 454 -19 568 -60 731
-62 247 -178 407 -350 485 -28 12 -50 26 -50 29 0 4 15 10 33 13 196 32 376
216 446 456 44 148 55 238 55 441 0 219 -15 325 -65 475 -44 132 -91 209 -183
301 -65 65 -98 89 -166 122 -164 78 -132 75 -817 79 l-613 4 0 -1941z m975
1434 c122 -64 165 -223 165 -615 0 -309 -29 -423 -120 -469 -34 -17 -59 -20
-185 -20 l-145 0 0 566 0 566 123 -4 c100 -2 129 -7 162 -24z"/>
<path d="M7710 6250 l0 -1940 321 0 321 0 -6 898 c-3 493 -9 943 -14 1000 -4
56 -4 102 1 102 4 0 7 -2 7 -3 0 -14 63 -309 80 -378 18 -72 372 -1291 446
-1536 l25 -83 284 0 285 0 0 1940 0 1940 -311 0 -312 0 7 -877 c3 -483 9 -906
12 -940 13 -124 -13 -60 -74 185 -34 136 -141 542 -237 902 -97 360 -180 672
-186 693 l-10 37 -319 0 -320 0 0 -1940z"/>
<path d="M10080 6250 l0 -1940 765 0 765 0 0 290 0 290 -420 0 -420 0 0 565 0
565 325 0 325 0 0 270 0 270 -325 0 -325 0 0 525 0 525 370 0 370 0 0 290 0
290 -715 0 -715 0 0 -1940z"/>
<path d="M1724 4236 c-332 -86 -630 -327 -777 -628 -50 -101 -92 -236 -107
-338 -34 -234 12 -628 109 -929 12 -35 18 -67 15 -72 -3 -5 -35 -30 -72 -56
-471 -332 -706 -631 -788 -1006 -22 -99 -30 -334 -15 -438 67 -465 430 -752
951 -752 319 0 578 108 825 344 l95 91 128 -129 c185 -190 328 -277 489 -302
158 -24 346 36 512 164 62 47 211 199 211 215 0 5 -16 32 -36 60 l-36 50 -61
-53 c-185 -158 -309 -204 -448 -164 -154 45 -348 238 -466 464 l-33 61 41 89
c23 48 83 187 134 308 173 410 273 595 370 684 59 54 105 73 178 74 103 1 138
-44 167 -210 31 -185 59 -224 164 -231 97 -6 156 30 207 128 20 38 24 60 24
135 -1 75 -5 99 -26 146 -72 155 -227 241 -433 241 -191 0 -346 -78 -474 -237
-73 -91 -100 -140 -206 -385 -129 -295 -236 -532 -248 -547 -6 -7 -14 -11 -18
-8 -11 7 -230 386 -338 585 -142 263 -308 614 -314 669 -3 19 24 37 202 135
464 255 662 398 815 589 355 441 301 1001 -115 1200 -130 62 -206 77 -387 77
-122 -1 -164 -5 -239 -24z m336 -267 c159 -36 273 -163 300 -334 20 -125 -11
-299 -76 -428 -85 -168 -200 -280 -474 -464 -178 -119 -432 -265 -442 -255
-11 11 -53 179 -75 295 -12 67 -17 148 -17 297 -1 213 9 303 45 419 74 237
274 427 493 471 59 11 194 11 246 -1z m-916 -580 c-13 -91 -15 -157 -11 -324
6 -241 35 -443 92 -645 8 -30 20 -73 27 -95 132 -468 464 -1130 900 -1795 38
-58 56 -91 41 -74 -190 210 -408 525 -618 889 -55 96 -241 464 -278 552 -190
445 -277 864 -247 1193 11 128 41 275 67 339 9 20 19 47 24 60 19 48 20 11 3
-100z m-67 -1426 c8 -21 23 -56 33 -78 9 -22 30 -69 46 -105 57 -132 247 -503
335 -657 50 -87 149 -245 220 -352 l130 -195 -58 -59 c-135 -138 -252 -202
-428 -233 -102 -18 -189 -18 -292 0 -330 59 -542 317 -545 665 0 102 1 113 33
249 54 230 159 430 329 627 62 73 166 175 178 175 2 0 10 -17 19 -37z"/>
<path d="M6809 4084 c-390 -70 -565 -375 -634 -1105 -36 -384 -43 -1109 -14
-1534 33 -502 111 -846 237 -1054 105 -173 236 -260 447 -297 113 -20 376 -14
475 11 405 101 578 493 631 1425 16 281 6 1176 -15 1400 -36 382 -85 606 -170
785 -104 219 -245 329 -476 371 -98 17 -381 17 -481 -2z m317 -403 c87 -53
109 -263 119 -1141 6 -540 -8 -1517 -25 -1705 -14 -161 -36 -250 -70 -288 -26
-29 -33 -32 -92 -32 -104 0 -135 28 -162 146 -34 145 -38 334 -33 1539 4 1286
5 1313 60 1420 38 75 133 104 203 61z"/>
<path d="M3870 2100 l0 -1940 320 0 320 0 0 643 c0 591 -10 1075 -26 1255 -8
88 9 98 26 15 42 -213 86 -375 297 -1100 l237 -813 288 0 288 0 0 1940 0 1940
-317 0 -316 0 6 -772 c4 -425 9 -856 12 -958 l6 -185 -80 310 c-44 171 -158
600 -253 955 l-173 645 -317 3 -318 2 0 -1940z m617 48 c-3 -7 -5 -2 -5 12 0
14 2 19 5 13 2 -7 2 -19 0 -25z"/>
<path d="M8490 2100 l0 -1941 543 4 c508 4 547 5 629 25 370 89 564 313 639
739 30 167 30 479 1 643 -62 347 -220 577 -434 637 -32 9 -58 20 -58 24 0 4
15 11 33 14 59 13 147 68 198 123 60 66 111 169 141 287 21 83 23 112 23 355
0 292 -10 371 -65 542 -62 193 -170 324 -331 401 -168 81 -163 80 -776 84
l-543 4 0 -1941z m905 1468 c68 -36 107 -99 133 -215 14 -64 17 -129 17 -363
0 -267 -1 -289 -22 -356 -43 -134 -88 -163 -255 -164 l-108 0 0 561 0 562 103
-5 c65 -3 113 -10 132 -20z m41 -1609 c84 -40 135 -155 155 -350 13 -126 6
-641 -10 -727 -28 -151 -73 -228 -149 -253 -21 -7 -88 -13 -152 -13 l-115 -1
-3 683 -2 682 117 0 c97 0 124 -3 159 -21z"/>
<path d="M10820 2100 l0 -1940 765 0 765 0 0 290 0 290 -410 0 -410 0 0 1650
0 1650 -355 0 -355 0 0 -1940z"/>
<path d="M12730 2100 l0 -1940 760 0 760 0 0 290 0 290 -420 0 -420 0 0 565 0
565 330 0 330 0 0 270 0 270 -330 0 -330 0 0 525 0 525 370 0 370 0 0 290 0
290 -710 0 -710 0 0 -1940z"/>
</g>
</svg>
