<?xml version="1.0" standalone="no"?>
<!DOCTYPE svg PUBLIC "-//W3C//DTD SVG 20010904//EN"
 "http://www.w3.org/TR/2001/REC-SVG-20010904/DTD/svg10.dtd">
<svg version="1.0" xmlns="http://www.w3.org/2000/svg"
 width="500.000000pt" height="521.000000pt" viewBox="0 0 500.000000 521.000000"
 preserveAspectRatio="xMidYMid meet">

<g transform="translate(0.000000,521.000000) scale(0.100000,-0.100000)"
fill="#000000" stroke="none">
<path d="M4802 5169 c-20 -6 -42 -24 -58 -49 -15 -22 -34 -42 -43 -45 -19 -6
-101 -82 -101 -93 0 -5 -12 -24 -26 -43 -14 -19 -31 -48 -39 -65 -7 -17 -29
-44 -49 -60 -20 -16 -36 -36 -36 -45 0 -8 -12 -26 -26 -40 -66 -62 -151 -183
-199 -285 -13 -28 -112 -99 -167 -120 -10 -3 -18 -11 -18 -18 0 -6 -35 -48
-78 -92 -42 -45 -89 -96 -103 -115 -15 -19 -43 -50 -64 -70 -20 -20 -42 -46
-48 -56 -7 -11 -47 -72 -89 -136 -43 -64 -78 -120 -78 -124 0 -5 -22 -36 -49
-70 -27 -33 -58 -80 -68 -104 -11 -24 -41 -75 -66 -112 -26 -38 -47 -79 -47
-91 0 -13 -9 -31 -20 -41 -11 -10 -20 -25 -20 -32 0 -8 -9 -26 -20 -40 -11
-14 -20 -34 -20 -44 0 -10 -5 -21 -11 -25 -14 -8 -59 -104 -59 -126 0 -9 -11
-34 -25 -54 -14 -20 -25 -45 -25 -55 0 -27 -13 -24 -43 11 -26 29 -60 39 -71
21 -3 -5 -15 -7 -26 -4 -11 3 -22 0 -25 -8 -3 -8 -2 -92 2 -187 5 -96 5 -176
1 -178 -3 -2 -46 65 -94 148 -47 84 -95 165 -105 180 -11 14 -19 32 -19 38 0
7 -18 52 -40 101 -22 49 -40 96 -40 104 0 8 -6 15 -12 15 -8 0 -14 15 -16 36
-1 19 -14 51 -28 69 -14 19 -23 39 -19 44 6 11 -14 49 -46 86 -9 11 -19 36
-23 56 -3 20 -15 44 -26 54 -11 10 -20 24 -20 32 0 14 -7 30 -34 78 -9 17 -34
64 -55 106 -22 41 -46 81 -55 88 -9 8 -16 21 -16 31 0 10 -6 23 -14 29 -8 6
-24 34 -35 62 -13 30 -32 54 -46 61 -13 6 -28 23 -34 39 -14 41 -127 201 -156
222 -15 10 -32 16 -40 13 -7 -2 -16 2 -19 10 -11 30 -118 2 -168 -45 -28 -25
-37 -51 -18 -51 6 0 10 -9 10 -19 0 -14 -5 -18 -20 -14 -21 5 -28 -11 -10 -22
10 -6 3 -52 -11 -70 -15 -20 -22 -92 -10 -100 9 -5 9 -11 0 -22 -10 -12 -10
-19 0 -36 10 -15 11 -22 2 -25 -16 -5 -14 -133 3 -168 14 -26 18 -109 15 -279
-1 -16 6 -55 14 -85 8 -30 19 -89 25 -130 6 -41 17 -103 25 -137 7 -35 10 -63
6 -63 -4 0 -19 13 -32 30 -15 17 -32 28 -40 24 -11 -4 -13 1 -10 19 4 20 -11
42 -82 118 -126 136 -131 142 -145 169 -20 37 -51 58 -85 56 -46 -2 -46 -47 0
-114 19 -28 35 -54 35 -57 0 -5 149 -271 188 -333 12 -20 29 -50 37 -67 9 -16
31 -55 49 -85 55 -89 106 -180 106 -190 0 -4 11 -22 25 -38 14 -17 37 -56 50
-87 14 -31 35 -69 47 -85 27 -37 16 -51 -15 -22 -13 12 -31 22 -39 22 -21 0
-75 45 -83 69 -3 11 -14 21 -25 24 -30 8 -110 -13 -110 -28 0 -18 37 -39 42
-24 6 18 108 -27 182 -81 38 -27 72 -50 76 -50 11 0 70 -56 70 -67 0 -4 16
-30 35 -57 61 -86 39 -106 -32 -29 -23 26 -43 41 -43 34 0 -11 -3 -11 -15 -1
-8 7 -15 17 -15 22 0 14 -71 76 -95 84 -11 4 -26 15 -33 25 -10 15 -18 16 -39
8 -29 -11 -35 -8 -37 18 -3 30 -40 83 -54 78 -8 -3 -22 -5 -32 -5 -10 0 -20
-8 -23 -17 -3 -15 -6 -13 -15 9 -15 36 -29 42 -42 17 -10 -18 -6 -26 34 -62
25 -23 59 -50 76 -59 17 -10 33 -25 37 -35 3 -10 11 -25 18 -33 6 -8 17 -34
25 -58 7 -23 19 -47 27 -53 7 -6 13 -16 13 -21 0 -5 14 -29 30 -54 20 -29 38
-44 52 -44 21 0 21 1 -5 28 -15 15 -27 38 -27 50 0 11 -8 26 -17 32 -13 8 -14
13 -5 16 18 8 15 22 -7 29 -11 3 -22 13 -25 22 -10 26 59 9 103 -26 22 -17 46
-31 55 -31 9 0 16 -8 16 -19 0 -13 8 -21 22 -23 12 -2 29 -16 38 -32 8 -16 23
-38 33 -48 9 -10 17 -22 17 -26 0 -5 10 -14 22 -21 13 -7 43 -37 68 -67 25
-31 71 -84 102 -118 32 -34 68 -76 80 -94 13 -17 55 -73 94 -124 39 -51 76
-103 83 -115 11 -22 10 -22 -16 -12 -74 28 -147 75 -168 110 -13 20 -40 46
-59 59 -20 12 -36 25 -36 30 0 4 -17 25 -39 46 -21 22 -46 55 -56 74 -16 32
-36 56 -139 170 -17 19 -30 40 -28 47 2 7 -1 13 -6 13 -5 0 -12 9 -15 21 -8
28 -37 21 -57 -13 -14 -27 -14 -29 18 -60 63 -64 167 -196 160 -204 -10 -9
-138 100 -299 256 -124 120 -112 107 -221 224 -51 55 -113 120 -138 145 -25
25 -49 54 -55 65 -14 28 -32 30 -38 4 -4 -12 -9 -19 -13 -16 -3 4 -4 19 0 33
8 31 41 33 89 5 18 -11 55 -26 81 -34 41 -13 48 -13 53 0 7 18 -16 74 -30 74
-6 0 -20 8 -31 18 -24 21 -76 39 -127 46 -20 2 -49 11 -65 19 -24 13 -33 13
-70 0 -60 -20 -71 -36 -49 -69 9 -15 30 -31 46 -37 20 -8 27 -17 24 -27 -3
-10 10 -29 35 -51 22 -18 40 -39 40 -45 0 -19 62 -70 67 -56 7 19 31 -3 48
-45 9 -22 21 -33 34 -33 15 0 21 -6 21 -23 0 -29 29 -57 57 -57 16 0 26 -12
39 -45 14 -38 21 -45 44 -45 36 0 120 -89 120 -127 0 -18 4 -24 15 -19 11 4
19 -3 25 -19 8 -20 16 -25 44 -25 33 0 46 -13 46 -47 0 -19 35 -50 77 -69 18
-8 39 -23 45 -34 7 -11 19 -20 26 -20 8 0 23 -11 34 -25 14 -18 26 -24 39 -20
15 5 19 1 19 -20 0 -21 4 -25 19 -20 15 4 20 0 23 -17 2 -16 13 -26 36 -34 18
-5 51 -28 75 -50 23 -22 62 -56 87 -74 25 -19 70 -59 100 -90 30 -31 108 -91
173 -134 65 -43 121 -86 125 -95 3 -9 15 -28 26 -44 18 -24 26 -27 82 -27 56
0 65 3 83 26 20 26 21 39 21 294 0 255 -1 268 -21 294 -19 25 -25 26 -108 26
-116 0 -125 9 -130 128 -2 47 2 102 8 123 17 56 43 61 322 57 216 -3 239 -5
258 -22 21 -19 21 -25 21 -446 0 -417 0 -428 21 -454 19 -24 26 -26 99 -26 73
0 80 -2 99 -26 12 -15 21 -33 21 -40 0 -22 92 75 184 193 48 62 96 117 106
123 11 6 29 33 41 60 12 27 32 56 45 65 13 8 35 37 49 63 51 95 75 136 100
168 14 18 25 40 25 48 0 8 13 30 28 48 39 45 72 102 72 123 0 9 14 33 30 52
17 18 30 40 30 47 0 8 7 19 15 26 8 7 15 23 15 36 0 13 6 27 14 31 13 8 56 96
56 115 0 6 12 19 26 31 14 11 35 40 45 65 11 24 31 58 44 74 14 16 25 36 25
44 0 8 12 37 26 65 14 28 23 56 21 62 -2 7 11 37 30 69 19 32 30 63 27 72 -4
11 -1 16 10 16 9 0 16 6 16 13 0 6 7 25 15 41 12 22 12 32 4 42 -9 11 -8 14 4
14 17 0 51 86 41 102 -4 6 -2 20 4 31 47 100 82 223 82 290 0 21 6 48 14 60
26 42 19 142 -17 244 -23 67 -37 93 -49 93 -11 0 -15 6 -11 19 7 28 -96 44
-187 30 -61 -9 -72 -15 -118 -59 -30 -29 -57 -47 -66 -44 -8 3 -22 -7 -35 -24
-25 -35 -26 -42 -7 -42 16 0 96 50 96 60 0 14 140 71 177 73 55 2 99 -20 125
-61 18 -29 23 -55 26 -129 3 -51 2 -100 -2 -108 -5 -15 -7 -15 -22 -1 -20 20
-48 20 -64 1 -7 -8 -24 -15 -37 -15 -30 0 -62 -22 -140 -95 -32 -30 -67 -58
-78 -61 -11 -3 -42 -32 -70 -64 -27 -32 -53 -59 -57 -59 -4 -1 -23 -17 -41
-38 -40 -43 -60 -39 -46 10 6 17 12 46 15 62 2 17 7 47 10 68 5 33 4 37 -14
37 -24 0 -66 -54 -58 -75 3 -8 2 -15 -3 -15 -5 0 -12 -11 -15 -25 -4 -14 -14
-25 -22 -25 -13 0 -15 6 -10 28 4 15 11 43 15 62 8 32 73 182 96 222 6 9 27
35 48 57 28 31 36 46 32 64 -4 15 6 48 29 97 20 41 36 80 36 87 0 7 5 13 10
13 6 0 14 8 17 18 4 9 18 32 31 50 26 34 44 132 24 132 -5 0 -26 -7 -46 -15
-34 -14 -36 -14 -36 4 0 11 6 32 14 48 8 15 31 73 52 128 20 55 51 136 69 180
18 44 36 94 39 110 6 27 26 73 77 180 10 22 19 50 19 61 0 12 7 27 15 34 8 7
15 21 15 31 0 11 4 27 10 37 5 9 24 60 41 112 16 52 37 105 45 117 8 12 14 31
14 41 0 10 9 27 20 37 11 10 20 27 20 37 0 10 9 43 19 74 24 67 36 140 24 147
-19 11 -90 15 -121 6z m73 -59 c3 -5 2 -10 -4 -10 -5 0 -13 5 -16 10 -3 6 -2
10 4 10 5 0 13 -4 16 -10z m-41 -22 c-3 -12 -8 -34 -9 -48 -1 -14 -9 -37 -19
-52 -9 -14 -18 -41 -20 -60 -1 -18 -9 -46 -18 -63 -22 -41 -70 -156 -73 -175
-1 -8 -7 -28 -14 -43 -6 -16 -11 -40 -11 -55 0 -14 -9 -36 -21 -48 -11 -12
-26 -43 -33 -70 -7 -27 -23 -67 -35 -89 -11 -22 -21 -48 -21 -59 0 -11 -6 -27
-13 -35 -15 -17 -34 -69 -71 -187 -12 -40 -27 -78 -32 -85 -6 -8 -14 -29 -18
-48 -3 -19 -24 -74 -46 -121 -22 -48 -40 -96 -40 -106 0 -11 -9 -38 -20 -59
-11 -22 -30 -65 -41 -95 -11 -30 -32 -67 -46 -82 -15 -15 -24 -31 -20 -34 3
-4 0 -12 -6 -19 -7 -7 -35 -41 -62 -75 -28 -35 -65 -78 -82 -97 -18 -18 -33
-39 -33 -47 0 -7 -11 -23 -25 -36 -26 -24 -31 -22 -16 8 22 43 41 94 41 108 0
9 11 25 24 35 19 15 26 33 32 75 4 34 14 64 25 75 22 22 69 116 69 138 0 9 11
34 25 56 13 22 25 48 25 58 0 11 8 30 19 43 10 13 22 44 26 70 3 25 15 54 26
65 10 10 19 27 19 36 0 23 49 165 63 182 6 7 12 48 12 90 1 42 5 84 9 93 6 12
0 24 -18 41 -14 13 -26 29 -26 34 0 6 -10 17 -21 25 l-22 14 22 41 c11 23 25
44 30 48 13 7 41 64 41 82 0 7 7 13 15 13 8 0 15 7 15 15 0 8 18 33 40 57 22
24 40 48 40 54 0 6 9 19 20 29 11 10 20 24 20 31 0 8 13 26 30 40 22 21 28 33
24 50 -5 18 -2 24 10 24 9 0 16 6 16 13 0 17 120 139 151 154 39 19 51 16 43
-9z m-507 -734 c24 -24 25 -30 20 -89 -3 -35 -10 -72 -15 -82 -13 -25 -33 -83
-39 -113 -3 -14 -12 -34 -19 -45 -8 -11 -14 -29 -14 -41 0 -12 -7 -27 -15 -34
-8 -7 -15 -18 -15 -25 0 -7 -21 -57 -47 -111 -26 -55 -46 -106 -46 -116 1 -9
-7 -24 -18 -34 -10 -9 -19 -22 -19 -29 0 -7 -16 -42 -35 -78 -21 -40 -35 -80
-35 -101 0 -34 -2 -36 -35 -36 -33 0 -48 -14 -24 -22 20 -7 1 -70 -53 -179
-41 -82 -53 -99 -55 -79 -8 57 -14 70 -32 70 -47 0 -65 -71 -21 -83 17 -4 19
-11 13 -58 -8 -68 -24 -106 -65 -156 -18 -22 -46 -63 -63 -91 -16 -29 -36 -52
-42 -52 -7 0 -13 -4 -13 -9 0 -6 -11 -22 -25 -37 -14 -15 -25 -37 -25 -49 0
-12 -14 -53 -32 -91 -17 -38 -41 -101 -52 -140 -12 -39 -25 -71 -31 -70 -13 1
-10 26 14 114 11 41 27 82 36 92 9 9 18 35 21 56 3 22 11 55 19 74 7 19 21 56
30 82 9 26 21 46 28 45 14 -3 22 34 9 42 -7 4 -8 12 -2 21 6 10 10 11 10 3 0
-7 7 -10 15 -7 12 5 14 0 8 -27 -6 -31 -5 -33 10 -21 19 16 51 95 45 114 -3 7
1 23 7 35 16 30 8 78 -10 63 -22 -18 -41 -73 -27 -78 20 -6 13 -20 -20 -36
-17 -9 -33 -16 -34 -16 -2 0 10 28 27 63 70 142 70 142 87 111 6 -11 9 -6 10
20 1 35 -11 49 -21 24 -4 -10 -8 -9 -16 2 -10 13 -15 11 -36 -13 -13 -15 -29
-43 -34 -63 -6 -20 -17 -44 -24 -53 -8 -9 -42 -101 -76 -206 -34 -104 -66
-199 -71 -210 -5 -11 -21 -51 -36 -90 -39 -103 -51 -106 -44 -12 1 15 -6 50
-16 77 l-18 49 27 66 c15 36 27 71 27 78 0 6 14 32 30 57 16 25 30 50 30 57 0
6 41 95 90 196 50 102 90 192 90 200 0 8 7 20 15 27 8 7 15 18 15 25 0 7 18
39 40 71 22 33 47 80 56 106 8 26 38 85 65 130 27 46 67 120 89 166 36 73 77
144 132 224 10 15 18 34 18 43 0 9 23 49 50 90 28 41 50 79 50 86 0 6 10 24
23 39 12 15 30 42 39 59 21 38 41 39 75 5z m-240 -105 c-9 -6 -29 -33 -43 -62
-15 -29 -33 -59 -41 -68 -7 -9 -13 -20 -11 -25 2 -5 -9 -25 -25 -45 -15 -20
-27 -46 -27 -58 0 -12 -6 -24 -14 -27 -13 -5 -106 -153 -106 -169 0 -4 -11
-20 -25 -37 -14 -16 -25 -38 -25 -48 0 -23 -38 -90 -51 -90 -5 0 -9 -8 -9 -19
0 -10 -8 -29 -19 -42 -10 -13 -39 -61 -65 -105 -42 -74 -46 -86 -38 -120 10
-50 5 -77 -15 -70 -23 9 -34 -3 -23 -25 9 -15 4 -26 -28 -61 -22 -24 -49 -64
-61 -90 -11 -26 -25 -50 -31 -53 -5 -3 -10 -23 -10 -44 0 -27 -7 -44 -25 -61
-14 -13 -25 -29 -25 -37 0 -7 -5 -13 -11 -13 -7 0 -8 -11 -4 -30 5 -22 3 -32
-9 -36 -11 -4 -14 -14 -10 -28 4 -17 -1 -27 -21 -40 -19 -13 -24 -21 -16 -30
7 -9 6 -19 -5 -34 -20 -29 -34 -28 -34 3 0 14 -9 44 -21 67 -26 51 -21 95 21
178 17 33 30 69 30 80 0 20 83 195 146 305 18 33 41 80 51 105 9 25 23 51 31
59 7 7 26 39 43 70 60 112 298 467 325 483 7 5 29 32 50 60 46 66 155 180 163
172 3 -3 -2 -10 -12 -15z m-2141 -37 c44 -18 115 -96 191 -207 22 -33 50 -68
62 -79 11 -10 19 -22 16 -26 -2 -4 7 -18 20 -30 14 -13 25 -32 25 -43 0 -10
12 -33 26 -50 14 -16 39 -57 56 -91 16 -34 39 -71 50 -83 11 -12 17 -27 13
-33 -4 -6 -2 -17 4 -24 11 -13 133 -257 156 -313 17 -41 1 -44 -20 -3 -9 17
-24 30 -34 30 -12 0 -20 10 -24 29 -4 21 -15 32 -37 39 -22 8 -30 17 -30 36 0
22 -43 66 -65 66 -4 0 -16 11 -27 25 -11 14 -28 25 -38 25 -10 0 -17 6 -16 13
1 13 -86 87 -102 87 -5 0 -19 11 -31 24 -24 26 -75 49 -85 39 -3 -3 -40 -6
-83 -7 -43 -1 -85 -5 -94 -9 -14 -7 -17 4 -23 82 -4 50 -11 93 -14 95 -11 7
-6 328 5 356 6 14 9 29 6 33 -10 16 7 37 29 36 13 0 42 -8 64 -17z m90 -634
c7 -7 18 -40 25 -74 l12 -61 -36 -34 -37 -34 29 -85 c16 -47 55 -146 88 -220
43 -101 64 -138 83 -147 15 -8 24 -19 22 -31 -1 -10 18 -62 44 -116 25 -54 48
-117 51 -139 3 -23 20 -74 39 -114 38 -80 43 -103 19 -83 -8 7 -15 20 -15 30
0 11 -12 22 -30 29 -27 9 -56 51 -52 73 1 4 -7 12 -18 18 -11 6 -20 17 -20 25
0 8 -11 17 -25 21 -16 4 -25 13 -25 25 0 12 -10 23 -25 29 -14 5 -25 14 -25
18 0 5 -16 20 -35 33 -19 13 -35 30 -35 37 0 7 -11 24 -25 38 -14 14 -25 36
-25 50 0 13 -7 35 -14 47 -8 12 -15 36 -14 52 0 17 -5 43 -11 60 -7 16 -16 59
-21 95 -5 36 -21 106 -36 155 -14 50 -28 108 -29 130 -2 22 -6 68 -10 102 -6
56 -4 62 17 78 27 19 113 14 134 -7z m256 -192 c29 -30 82 -87 118 -127 36
-40 82 -90 103 -112 20 -22 37 -43 37 -48 0 -21 -24 -5 -93 64 -41 39 -91 83
-111 97 -63 43 -106 85 -106 102 0 9 -7 21 -16 26 -17 9 -12 52 6 52 5 0 33
-24 62 -54z m-82 -185 c0 -11 -4 -10 -15 5 -8 10 -14 26 -14 34 0 11 3 10 14
-4 8 -11 15 -27 15 -35z m2520 -46 c0 -3 -16 -29 -35 -58 -19 -28 -35 -57 -35
-64 0 -7 -21 -41 -46 -75 -50 -68 -114 -174 -114 -188 0 -5 -12 -22 -26 -37
-15 -15 -41 -61 -60 -100 -28 -63 -36 -73 -58 -73 -14 0 -26 -4 -26 -10 0 -5
-4 -10 -9 -10 -14 0 -131 -115 -131 -128 0 -18 18 -15 52 9 16 12 31 19 34 16
6 -6 -78 -170 -176 -342 -41 -71 -83 -147 -93 -167 -18 -36 -47 -68 -47 -53 0
5 7 16 16 26 15 17 12 39 -5 39 -4 0 -17 -18 -30 -40 -12 -22 -26 -42 -30 -44
-13 -8 0 47 15 64 7 8 17 27 23 42 6 16 16 26 23 23 7 -2 22 2 32 10 15 11 17
18 8 27 -8 8 -15 8 -27 -2 -14 -12 -15 -10 -9 15 6 24 4 27 -10 22 -16 -6 -17
-2 -11 33 4 26 3 40 -4 40 -6 0 -2 9 9 20 11 11 20 31 20 44 0 13 7 37 15 52
8 16 15 40 15 54 0 14 9 39 19 56 11 17 31 64 46 105 14 40 34 89 44 109 10
19 25 51 34 71 24 57 281 335 390 423 80 64 187 116 187 91z m-738 -47 c-12
-18 -34 -58 -51 -88 -16 -30 -38 -66 -50 -80 -20 -24 -20 -24 -21 -4 0 12 8
32 18 45 10 13 28 42 41 64 25 43 74 104 80 99 2 -2 -6 -18 -17 -36z m-1584
-30 c37 -35 91 -90 121 -123 55 -61 228 -316 255 -377 16 -35 47 -89 63 -110
10 -15 34 -90 63 -205 15 -60 19 -96 14 -133 -8 -62 -14 -58 -86 49 -28 42
-55 78 -60 79 -5 2 -18 22 -29 44 -11 22 -48 77 -83 122 -34 44 -68 97 -76
116 -7 19 -20 39 -27 43 -7 4 -13 18 -13 30 0 41 -21 96 -55 147 -19 28 -32
56 -29 63 2 7 -7 30 -21 51 -14 20 -25 45 -25 56 0 10 -4 22 -10 25 -5 3 -10
17 -10 30 0 13 -4 26 -9 30 -8 5 -61 110 -61 121 0 11 16 -1 78 -58z m2366
-70 c-14 -40 -33 -100 -42 -133 -9 -33 -34 -98 -55 -145 -22 -47 -48 -107 -57
-135 -10 -27 -43 -103 -74 -167 -31 -64 -56 -121 -56 -127 0 -6 -4 -11 -9 -11
-9 0 -111 -171 -111 -186 0 -4 -17 -35 -39 -68 -21 -34 -69 -117 -106 -186
-37 -69 -77 -139 -90 -156 -13 -17 -54 -82 -92 -146 -127 -211 -313 -458 -372
-492 -13 -7 -12 -5 2 11 9 11 17 25 17 32 0 7 6 25 14 39 8 15 20 47 26 72 21
76 43 120 67 135 14 10 23 25 23 41 0 14 7 32 15 40 8 9 15 26 15 38 0 12 16
41 36 64 19 23 33 46 29 52 -3 5 10 33 30 61 19 28 35 57 35 64 0 6 10 20 21
31 12 10 32 42 45 71 13 28 27 54 33 57 5 4 12 19 16 34 3 15 19 48 35 72 17
25 30 55 30 68 0 12 7 25 15 28 8 4 23 25 33 48 10 22 26 47 35 55 10 7 17 19
17 26 0 6 25 54 57 106 31 52 67 117 79 146 13 29 28 53 34 53 5 0 10 8 10 17
0 9 12 34 26 54 14 21 31 53 38 71 6 18 24 51 39 73 68 98 179 270 198 308 25
50 52 82 57 68 2 -5 -9 -43 -24 -83z m-3046 17 c6 -13 24 -31 39 -39 15 -8 45
-36 65 -63 20 -26 55 -66 77 -88 28 -26 41 -48 41 -66 0 -15 11 -55 24 -90 31
-85 39 -119 26 -119 -5 0 -10 6 -10 13 0 6 -23 45 -50 86 -28 40 -50 80 -50
87 0 8 -5 14 -10 14 -6 0 -23 26 -38 58 -15 32 -37 61 -50 67 -13 6 -22 19
-22 32 0 12 -5 25 -10 28 -6 4 -17 22 -25 41 -8 19 -21 34 -29 34 -9 0 -16 7
-16 15 0 24 26 17 38 -10z m877 -5 c3 -6 -1 -7 -9 -4 -18 7 -21 14 -7 14 6 0
13 -4 16 -10z m1419 -87 c-4 -21 -19 -60 -34 -88 -15 -27 -33 -68 -40 -90 -7
-22 -23 -58 -36 -80 -12 -22 -39 -82 -58 -132 -19 -51 -44 -110 -55 -130 -38
-75 -71 -154 -71 -170 0 -9 -21 -42 -48 -72 -26 -31 -53 -69 -60 -85 -9 -20
-16 -26 -24 -18 -14 14 2 61 69 196 29 60 53 115 53 123 0 8 9 27 19 42 11 15
27 47 37 72 9 24 21 48 26 53 4 6 8 20 8 33 0 12 15 46 34 75 18 29 50 87 71
128 37 74 103 180 111 180 3 0 2 -17 -2 -37z m216 31 c0 -3 -11 -20 -25 -36
-14 -16 -23 -34 -20 -38 4 -7 -62 -128 -81 -149 -2 -2 -2 17 -1 43 1 25 5 46
9 46 8 0 88 120 88 132 0 4 7 8 15 8 8 0 15 -3 15 -6z m-377 -79 c-3 -9 -8
-14 -10 -11 -3 3 -2 9 2 15 9 16 15 13 8 -4z m-106 -57 c-8 -12 -18 -36 -21
-51 -4 -16 -17 -45 -30 -65 -13 -20 -28 -53 -35 -73 -6 -20 -20 -53 -31 -74
-11 -22 -20 -47 -20 -55 0 -22 -69 -164 -76 -157 -3 3 -1 14 5 25 6 11 8 27 5
35 -3 8 8 47 24 88 16 41 33 89 37 108 7 34 60 128 118 208 31 44 50 53 24 11z
m-667 -57 c0 -20 -13 -41 -21 -35 -15 9 -10 44 6 44 8 0 15 -4 15 -9z m-830
-358 c16 -28 50 -77 77 -109 26 -33 57 -79 69 -105 12 -25 33 -59 46 -75 71
-86 186 -310 174 -339 -2 -7 5 -21 16 -32 18 -15 48 -71 48 -87 0 -3 -7 -3
-15 0 -10 4 -15 0 -15 -16 0 -16 4 -20 18 -16 15 5 23 -4 42 -44 13 -27 21
-53 17 -56 -11 -11 -151 140 -180 194 l-29 53 26 20 c29 23 36 52 9 42 -11 -4
-14 -3 -9 6 10 16 -31 61 -56 61 -11 0 -18 7 -18 20 0 26 -23 72 -44 89 -9 8
-16 22 -16 32 0 13 -7 19 -21 19 -12 0 -23 8 -26 20 -3 11 -9 20 -14 20 -5 0
-9 9 -9 19 0 11 -7 27 -16 36 -18 17 -194 373 -193 390 0 17 88 -87 119 -142z
m1016 32 c144 -43 199 -219 107 -342 -30 -39 -115 -83 -161 -83 -125 0 -222
96 -222 220 0 99 57 176 152 205 56 18 65 18 124 0z m734 11 c0 -3 -4 -8 -10
-11 -5 -3 -10 -1 -10 4 0 6 5 11 10 11 6 0 10 -2 10 -4z m-1577 -157 c7 -28
-13 -10 -37 33 l-19 33 25 -23 c15 -13 28 -33 31 -43z m292 -73 c126 -187 138
-206 133 -211 -13 -14 -218 266 -218 297 0 31 21 9 85 -86z m-835 -30 c0 -3
-4 -8 -10 -11 -5 -3 -10 -1 -10 4 0 6 5 11 10 11 6 0 10 -2 10 -4z m789 -136
c31 -58 84 -190 77 -190 -11 0 -176 287 -176 305 0 20 71 -62 99 -115z m1241
-10 c0 -6 -11 -28 -25 -50 -14 -22 -25 -48 -25 -57 0 -24 -42 -91 -47 -76 -3
7 8 39 22 70 15 32 34 73 42 91 15 31 33 43 33 22z m-1690 -70 c0 -5 -5 -10
-11 -10 -5 0 -7 5 -4 10 3 6 8 10 11 10 2 0 4 -4 4 -10z m277 -128 c7 -5 9
-13 4 -21 -7 -11 -11 -9 -20 8 -12 21 -6 27 16 13z m1172 -99 c-51 -111 -61
-122 -55 -60 4 37 13 57 40 88 20 21 36 44 36 49 0 6 4 10 10 10 5 0 -9 -39
-31 -87z m122 64 c-10 -9 -11 -8 -5 6 3 10 9 15 12 12 3 -3 0 -11 -7 -18z m89
3 c0 -5 -5 -10 -11 -10 -5 0 -7 5 -4 10 3 6 8 10 11 10 2 0 4 -4 4 -10z m-90
-46 c0 -8 -4 -14 -9 -14 -14 0 -51 -65 -51 -90 0 -12 -11 -35 -25 -52 -14 -16
-25 -38 -25 -49 0 -10 -9 -28 -20 -39 -11 -11 -20 -27 -20 -35 0 -8 -4 -15
-10 -15 -14 0 -12 21 4 39 7 9 24 43 37 76 12 33 28 67 34 75 7 8 24 41 39 73
25 53 46 67 46 31z m66 -29 c-4 -14 -11 -25 -16 -25 -5 0 -5 13 2 31 12 35 23
31 14 -6z m-57 -155 c-18 -39 -34 -69 -35 -67 -4 4 38 127 51 147 6 10 10 11
13 2 2 -7 -11 -43 -29 -82z m-259 -88 c0 -21 -2 -24 -10 -12 -13 20 -13 53 0
45 6 -3 10 -18 10 -33z m-714 -189 c-4 -4 -11 -1 -16 7 -16 25 -11 35 7 17 9
-9 13 -20 9 -24z m11 -128 c23 -11 44 -28 46 -37 10 -35 -14 -28 -60 17 -51
50 -50 51 14 20z m683 15 c0 -6 -7 -27 -16 -48 l-16 -37 -13 30 c-11 26 -11
33 2 48 18 19 43 23 43 7z"/>
<path d="M3880 3360 c0 -5 5 -10 10 -10 6 0 10 5 10 10 0 6 -4 10 -10 10 -5 0
-10 -4 -10 -10z"/>
<path d="M3760 3262 c0 -16 -3 -44 -7 -62 -4 -25 -3 -31 6 -26 7 5 10 14 7 21
-3 8 2 19 10 26 17 14 15 61 -3 67 -9 2 -13 -7 -13 -26z"/>
<path d="M3650 2804 c0 -8 5 -12 10 -9 6 4 8 11 5 16 -9 14 -15 11 -15 -7z"/>
<path d="M4155 2371 c-6 -11 9 -23 19 -14 9 9 7 23 -3 23 -6 0 -12 -4 -16 -9z"/>
<path d="M4090 2275 c0 -8 5 -15 10 -15 6 0 10 7 10 15 0 8 -4 15 -10 15 -5 0
-10 -7 -10 -15z"/>
<path d="M4040 2219 c0 -25 33 -22 38 4 2 12 -3 17 -17 17 -15 0 -21 -6 -21
-21z"/>
<path d="M4018 2176 c-10 -7 -18 -18 -18 -25 0 -6 -7 -23 -16 -36 -9 -13 -13
-29 -10 -34 9 -14 33 -3 39 17 3 9 12 34 21 55 17 39 13 45 -16 23z"/>
<path d="M2600 1750 c0 -5 5 -10 10 -10 6 0 10 5 10 10 0 6 -4 10 -10 10 -5 0
-10 -4 -10 -10z"/>
<path d="M2620 1704 c0 -31 23 -28 28 4 2 15 -2 22 -12 22 -11 0 -16 -9 -16
-26z"/>
<path d="M4380 3399 c0 -5 5 -7 10 -4 6 3 10 8 10 11 0 2 -4 4 -10 4 -5 0 -10
-5 -10 -11z"/>
<path d="M40 1190 l0 -350 55 0 55 0 0 350 0 350 -55 0 -55 0 0 -350z"/>
<path d="M280 1190 l0 -350 55 0 55 0 0 228 c0 223 1 227 18 197 10 -16 71
-119 136 -227 l117 -198 39 0 40 0 0 350 0 350 -50 0 -50 0 0 -225 c0 -124 -4
-225 -8 -225 -5 0 -14 12 -21 28 -7 15 -63 116 -124 224 l-112 198 -47 0 -48
0 0 -350z"/>
<path d="M870 1190 l0 -350 138 0 c75 0 155 5 177 11 51 14 110 73 124 124 14
51 14 377 1 427 -14 50 -55 97 -105 119 -33 15 -66 19 -187 19 l-148 0 0 -350z
m299 226 c11 -10 25 -35 31 -55 13 -48 13 -296 -1 -344 -16 -57 -56 -78 -144
-75 l-70 3 -3 249 -2 248 84 -3 c65 -3 89 -8 105 -23z"/>
<path d="M1440 840 l0 -700 138 0 c75 0 155 5 177 11 80 22 115 79 115 192 0
74 -23 124 -66 145 l-34 15 31 19 c44 27 62 79 56 161 -5 78 -24 112 -78 139
-34 18 -33 18 124 18 l157 0 0 50 0 50 -135 0 -135 0 0 110 0 110 95 0 95 0 0
50 0 50 -95 0 -95 0 0 90 0 90 135 0 135 0 0 50 0 50 -190 0 -190 0 0 -350 0
-350 -65 0 -65 0 0 350 0 350 -55 0 -55 0 0 -700z m287 -116 c23 -23 25 -31
21 -86 -6 -83 -25 -98 -124 -98 l-74 0 0 105 0 105 75 0 c68 0 79 -3 102 -26z
m2 -293 c22 -22 37 -97 26 -133 -16 -50 -32 -58 -122 -58 l-83 0 0 105 0 105
80 0 c66 0 83 -3 99 -19z"/>
<path d="M3812 1013 c-41 -16 -31 -98 13 -109 33 -8 75 10 75 33 0 15 -3 14
-16 -5 -21 -30 -59 -29 -80 3 -15 23 -15 27 0 50 21 32 59 33 80 3 13 -18 16
-19 16 -6 0 29 -50 46 -88 31z"/>
<path d="M3820 958 c1 -28 2 -30 11 -15 5 9 7 22 4 27 -3 6 -2 10 2 10 5 0 14
-12 20 -27 l11 -28 1 33 c1 28 -2 32 -24 32 -22 0 -25 -4 -25 -32z"/>
<path d="M2100 847 c-46 -15 -106 -77 -119 -124 -6 -21 -11 -128 -11 -239 0
-201 0 -202 28 -255 38 -73 96 -103 197 -103 102 0 159 30 198 104 l28 55 -3
222 -3 221 -30 43 c-41 58 -93 83 -180 86 -38 1 -86 -3 -105 -10z m172 -116
l33 -29 3 -194 c2 -169 0 -197 -15 -228 -39 -76 -157 -76 -196 0 -16 31 -17
59 -15 228 l3 194 33 29 c46 41 108 41 154 0z"/>
<path d="M2542 547 l3 -294 27 -40 c39 -60 103 -88 198 -87 89 1 144 24 187
81 l28 36 3 299 3 298 -55 0 -55 0 -3 -285 c-3 -277 -4 -285 -25 -306 -15 -16
-38 -24 -76 -27 -49 -4 -57 -2 -88 26 l-34 30 -3 281 -3 281 -55 0 -55 0 3
-293z"/>
<path d="M3120 491 l0 -351 55 0 55 0 0 228 0 227 32 -55 c17 -30 78 -133 136
-227 l104 -173 39 0 39 0 0 350 0 350 -55 0 -55 0 0 -227 0 -228 -64 115 c-35
63 -92 165 -128 225 l-63 110 -48 3 -47 3 0 -350z"/>
<path d="M3710 489 l0 -351 153 4 c140 3 155 5 197 28 29 17 53 41 70 70 24
44 25 49 25 255 0 226 -3 242 -57 292 -47 44 -88 53 -243 53 l-145 0 0 -351z
m301 222 l29 -29 0 -182 c0 -203 -7 -230 -61 -249 -18 -6 -61 -11 -95 -11
l-64 0 0 250 0 250 81 0 c76 0 82 -2 110 -29z"/>
<path d="M4887 418 c-2 -8 -23 -13 -56 -13 -45 0 -56 -4 -77 -28 -27 -32 -31
-73 -9 -104 13 -18 13 -22 0 -33 -17 -14 -20 -51 -5 -66 8 -8 6 -15 -5 -24 -8
-7 -15 -23 -15 -35 0 -63 134 -92 185 -40 30 29 34 84 7 108 -10 9 -44 19 -75
23 -69 8 -71 27 -5 34 25 3 53 11 61 19 21 17 31 65 18 89 -9 16 -7 21 9 25
14 3 20 14 20 31 0 21 -5 26 -24 26 -13 0 -26 -6 -29 -12z m-42 -98 c0 -44
-29 -54 -46 -16 -9 20 -9 29 1 41 22 27 45 14 45 -25z m13 -169 c8 -5 12 -17
10 -27 -4 -26 -60 -31 -78 -8 -12 14 -12 18 5 30 21 16 44 18 63 5z"/>
<path d="M4384 400 c-41 -16 -54 -49 -54 -132 0 -67 3 -81 24 -105 20 -23 32
-28 71 -28 39 0 51 5 72 29 23 27 25 36 21 112 -2 67 -7 87 -23 103 -24 23
-81 34 -111 21z m66 -129 c0 -55 -4 -81 -12 -84 -31 -10 -38 5 -38 84 0 78 0
79 25 79 25 0 25 -1 25 -79z"/>
<path d="M4560 270 l0 -130 35 0 35 0 0 84 c0 90 11 116 51 116 14 0 19 7 19
30 0 24 -4 30 -22 30 -12 0 -30 -7 -40 -17 -17 -15 -18 -15 -18 0 0 12 -9 17
-30 17 l-30 0 0 -130z"/>
<path d="M4200 175 c0 -32 2 -35 30 -35 28 0 30 3 30 35 0 32 -2 35 -30 35
-28 0 -30 -3 -30 -35z"/>
</g>
</svg>
