<?xml version="1.0" standalone="no"?>
<!DOCTYPE svg PUBLIC "-//W3C//DTD SVG 20010904//EN"
 "http://www.w3.org/TR/2001/REC-SVG-20010904/DTD/svg10.dtd">
<svg version="1.0" xmlns="http://www.w3.org/2000/svg"
 width="271.000000pt" height="345.000000pt" viewBox="0 0 271.000000 345.000000"
 preserveAspectRatio="xMidYMid meet">

<g transform="translate(0.000000,345.000000) scale(0.100000,-0.100000)"
fill="#000000" stroke="none">
<path d="M1225 3063 c-220 -35 -405 -142 -532 -308 -300 -393 -380 -1149 -182
-1712 64 -182 146 -313 268 -433 145 -141 311 -214 522 -227 429 -27 759 227
912 702 155 480 119 1089 -89 1495 -127 249 -302 400 -534 460 -84 22 -291 35
-365 23z m340 -49 c33 -9 99 -36 146 -60 203 -105 338 -303 417 -609 39 -153
49 -223 62 -430 25 -391 -33 -786 -151 -1034 -112 -236 -256 -370 -469 -436
-81 -25 -285 -31 -380 -11 -290 62 -499 298 -599 678 -43 159 -60 280 -70 485
-42 849 204 1355 694 1433 82 12 277 4 350 -16z"/>
<path d="M1245 2790 c-71 -23 -137 -25 -220 -5 -60 14 -89 8 -79 -19 3 -7 40
-38 83 -70 124 -90 170 -173 156 -281 -9 -75 -39 -132 -181 -341 -194 -286
-237 -394 -238 -589 -1 -118 12 -167 48 -173 26 -5 36 15 36 74 0 53 37 210
65 277 8 20 22 37 30 37 18 0 18 9 -2 -102 -23 -129 -23 -381 0 -466 27 -103
55 -156 108 -208 27 -26 49 -53 49 -59 0 -6 -38 -31 -85 -55 -47 -24 -85 -48
-85 -52 0 -4 19 -8 42 -10 36 -3 43 -7 48 -28 8 -35 30 -35 75 0 32 26 46 30
97 30 70 0 78 11 49 69 l-21 40 22 15 c37 23 174 49 239 44 59 -4 109 -33 109
-63 0 -6 -20 -26 -45 -44 -61 -43 -59 -61 5 -61 43 0 52 -4 72 -30 28 -38 48
-38 76 0 20 27 28 30 77 30 30 0 55 4 55 10 0 5 -25 28 -55 50 -68 50 -71 74
-19 174 49 96 64 163 64 282 0 120 -18 231 -60 371 -16 56 -30 109 -30 118 0
24 24 17 42 -12 30 -52 108 -245 128 -316 11 -39 27 -78 35 -86 13 -14 17 -13
33 2 22 23 29 159 12 255 -17 100 -79 254 -147 367 -33 55 -90 149 -127 209
-79 131 -103 202 -116 350 -8 89 -15 122 -37 166 -55 106 -171 144 -308 100z
m189 -72 c37 -53 4 -132 -61 -144 -26 -5 -37 -1 -59 21 -22 22 -25 32 -21 63
12 72 105 112 141 60z m87 -152 c3 -86 -15 -147 -50 -165 -20 -11 -168 -40
-203 -41 -10 0 -18 7 -18 14 0 18 45 53 117 91 44 23 103 85 103 107 0 4 5 19
11 35 10 27 11 27 25 9 8 -11 14 -34 15 -50z m-46 -288 c42 -21 86 -74 105
-126 15 -39 23 -97 30 -215 11 -188 29 -308 64 -427 64 -219 62 -400 -6 -472
l-29 -31 -77 8 c-102 11 -169 8 -228 -10 -64 -19 -148 -19 -190 1 -68 32 -90
88 -105 261 -27 297 68 808 177 950 54 71 180 101 259 61z"/>
<path d="M1362 2668 c-16 -16 -15 -55 2 -61 22 -9 58 22 54 46 -3 25 -37 34
-56 15z"/>
</g>
</svg>
